<svg xmlns="http://www.w3.org/2000/svg" viewBox="0 0 1000 320" width="1000" height="320" data-anchor="center" xmlns:c2pa="http://c2pa.org/manifest"><defs><filter id="f" x="-20%" y="-100%" width="140%" height="300%"><feTurbulence type="fractalNoise" baseFrequency=".004 .05" numOctaves="3" seed="2"></feTurbulence><feDisplacementMap in="SourceGraphic" scale="28" xChannelSelector="R" yChannelSelector="G"></feDisplacementMap><feGaussianBlur stdDeviation="1.6"></feGaussianBlur></filter></defs><g filter="url(#f)"><ellipse cx="654.2" cy="49.3" rx="185.8" ry="3.5" fill="#FEFEFE" fill-opacity="0.7" transform="rotate(-8.2 500 160)"></ellipse><ellipse cx="490.7" cy="78.8" rx="145.3" ry="6.9" fill="#FEFEFE" fill-opacity="0.4" transform="rotate(-11.3 500 160)"></ellipse><ellipse cx="649.7" cy="154.4" rx="256.7" ry="9.2" fill="#FEFEFE" fill-opacity="0.5" transform="rotate(-6.5 500 160)"></ellipse><ellipse cx="350.7" cy="201.3" rx="200.6" ry="8.8" fill="#FEFEFE" fill-opacity="0.6" transform="rotate(-11.9 500 160)"></ellipse><ellipse cx="764.1" cy="114.5" rx="286.7" ry="8.4" fill="#FEFEFE" fill-opacity="0.5" transform="rotate(-6.3 500 160)"></ellipse><ellipse cx="258" cy="128.3" rx="241.8" ry="3" fill="#FEFEFE" fill-opacity="0.4" transform="rotate(-8.2 500 160)"></ellipse><ellipse cx="754.2" cy="184.7" rx="233.2" ry="8.5" fill="#FEFEFE" fill-opacity="0.6" transform="rotate(-7.3 500 160)"></ellipse><ellipse cx="199.6" cy="129.4" rx="201.5" ry="8.9" fill="#FEFEFE" fill-opacity="0.5" transform="rotate(-8.3 500 160)"></ellipse><ellipse cx="497.7" cy="177" rx="253" ry="9" fill="#FEFEFE" fill-opacity="0.6" transform="rotate(-9 500 160)"></ellipse></g></svg>