<svg xmlns="http://www.w3.org/2000/svg" viewBox="0 0 1400 420" width="1400" height="420" data-anchor="bottom" xmlns:c2pa="http://c2pa.org/manifest"><defs><linearGradient id="g" x1="0" y1="0" x2="0" y2="1"><stop offset="0" stop-color="#FEFEFE" stop-opacity="0.6"></stop><stop offset="1" stop-color="#FEFEFE" stop-opacity="0.25"></stop></linearGradient></defs><rect width="1400" height="420" fill="#010101"></rect><rect width="1400" height="420" fill="url(#g)"></rect><path d="M-20 0 L0 29.5 L30 26.7 L60 20.5 L90 34.9 L120 33.1 L150 16.6 L180 17.5 L210 25.4 L240 21.9 L270 21.8 L300 28.4 L330 27.6 L360 20 L390 35.1 L420 26.7 L450 35 L480 34.6 L510 29 L540 29.6 L570 15.5 L600 31 L630 33.9 L660 27.8 L690 33.6 L720 19.8 L750 25.5 L780 20.3 L810 17 L840 27.4 L870 16.9 L900 28 L930 28.4 L960 31.5 L990 21.1 L1020 24.5 L1050 19.2 L1080 18.6 L1110 31.6 L1140 16.7 L1170 14.4 L1200 32.3 L1230 26.3 L1260 28 L1290 19.2 L1320 25.1 L1350 18.5 L1380 22.3 L1410 18.9 L1420 0Z" fill="#010101" fill-opacity=".6"></path><rect width="1400" height="2" fill="#FEFEFE" fill-opacity=".7"></rect><rect x="920.8" y="248.3" width="143.2" height="2.2" fill="#FEFEFE" fill-opacity="0.369"></rect><rect x="260.8" y="56.7" width="55.9" height="1.3" fill="#FEFEFE" fill-opacity="0.276"></rect><rect x="675.4" y="189.1" width="112.7" height="1.9" fill="#FEFEFE" fill-opacity="0.33799999999999997"></rect><rect x="517.9" y="318.5" width="146" height="2.6" fill="#FEFEFE" fill-opacity="0.27699999999999997"></rect><rect x="622.8" y="363" width="118.4" height="2.8" fill="#FEFEFE" fill-opacity="0.40399999999999997"></rect><rect x="801.5" y="396.4" width="209.3" height="3" fill="#FEFEFE" fill-opacity="0.21100000000000002"></rect><rect x="183.3" y="44.8" width="78.1" height="1.2" fill="#FEFEFE" fill-opacity="0.38799999999999996"></rect><rect x="280" y="295.1" width="136.3" height="2.5" fill="#FEFEFE" fill-opacity="0.41"></rect><rect x="199.7" y="116.1" width="93.5" height="1.6" fill="#FEFEFE" fill-opacity="0.29"></rect><rect x="721" y="274.2" width="99.9" height="2.4" fill="#FEFEFE" fill-opacity="0.182"></rect><rect x="1005.3" y="122.1" width="71.9" height="1.6" fill="#FEFEFE" fill-opacity="0.16699999999999998"></rect><rect x="333.1" y="341.6" width="124.7" height="2.7" fill="#FEFEFE" fill-opacity="0.395"></rect><rect x="938.7" y="53.5" width="23" height="1.3" fill="#FEFEFE" fill-opacity="0.40700000000000003"></rect><rect x="1283.9" y="369.5" width="100.1" height="2.8" fill="#FEFEFE" fill-opacity="0.22699999999999998"></rect><rect x="1173.6" y="325.3" width="60.8" height="2.6" fill="#FEFEFE" fill-opacity="0.39399999999999996"></rect><rect x="474" y="321.4" width="81.4" height="2.6" fill="#FEFEFE" fill-opacity="0.37"></rect><rect x="563.2" y="395.9" width="40.8" height="3" fill="#FEFEFE" fill-opacity="0.305"></rect><rect x="1153.3" y="407.1" width="65.5" height="3" fill="#FEFEFE" fill-opacity="0.37799999999999995"></rect><rect x="717.2" y="331.2" width="104.8" height="2.7" fill="#FEFEFE" fill-opacity="0.213"></rect><rect x="290.8" y="334.4" width="93.2" height="2.7" fill="#FEFEFE" fill-opacity="0.225"></rect><rect x="1071.1" y="264" width="68.8" height="2.3" fill="#FEFEFE" fill-opacity="0.258"></rect><rect x="1138.3" y="160" width="58.7" height="1.8" fill="#FEFEFE" fill-opacity="0.368"></rect><rect x="165.1" y="371.3" width="70.4" height="2.9" fill="#FEFEFE" fill-opacity="0.384"></rect><rect x="1090" y="101" width="37.3" height="1.5" fill="#FEFEFE" fill-opacity="0.221"></rect><rect x="27.8" y="341.9" width="108.7" height="2.7" fill="#FEFEFE" fill-opacity="0.237"></rect><rect x="853.6" y="219.5" width="30.8" height="2.1" fill="#FEFEFE" fill-opacity="0.281"></rect><rect x="486.6" y="213.4" width="31.1" height="2.1" fill="#FEFEFE" fill-opacity="0.24"></rect><rect x="288.8" y="110.4" width="50.7" height="1.6" fill="#FEFEFE" fill-opacity="0.252"></rect><rect x="1265.3" y="231" width="141.7" height="2.2" fill="#FEFEFE" fill-opacity="0.331"></rect><rect x="138" y="229.4" width="63.7" height="2.1" fill="#FEFEFE" fill-opacity="0.182"></rect><rect x="1010.5" y="193.2" width="49.2" height="2" fill="#FEFEFE" fill-opacity="0.205"></rect><rect x="1129.1" y="147" width="43.4" height="1.7" fill="#FEFEFE" fill-opacity="0.32899999999999996"></rect><rect x="1218.7" y="375.4" width="101.5" height="2.9" fill="#FEFEFE" fill-opacity="0.294"></rect><rect x="79.2" y="377.6" width="168.6" height="2.9" fill="#FEFEFE" fill-opacity="0.449"></rect><rect x="526.6" y="42.4" width="35.9" height="1.2" fill="#FEFEFE" fill-opacity="0.335"></rect><rect x="1174.9" y="108.6" width="40" height="1.5" fill="#FEFEFE" fill-opacity="0.309"></rect><rect x="776" y="406.7" width="210.5" height="3" fill="#FEFEFE" fill-opacity="0.21899999999999997"></rect><rect x="1013.3" y="395.4" width="93.4" height="3" fill="#FEFEFE" fill-opacity="0.39799999999999996"></rect><rect x="1179.7" y="187.1" width="111.3" height="1.9" fill="#FEFEFE" fill-opacity="0.281"></rect><rect x="1154.3" y="214.6" width="59.9" height="2.1" fill="#FEFEFE" fill-opacity="0.39799999999999996"></rect><rect x="830.9" y="203.1" width="90.4" height="2" fill="#FEFEFE" fill-opacity="0.27899999999999997"></rect><rect x="908.8" y="315.1" width="149.5" height="2.6" fill="#FEFEFE" fill-opacity="0.38"></rect><rect x="981.8" y="272.6" width="68.9" height="2.4" fill="#FEFEFE" fill-opacity="0.369"></rect><rect x="1111.5" y="45.2" width="19.7" height="1.2" fill="#FEFEFE" fill-opacity="0.442"></rect><rect x="857.2" y="253.7" width="160.3" height="2.3" fill="#FEFEFE" fill-opacity="0.223"></rect><rect x="71.1" y="298" width="106.2" height="2.5" fill="#FEFEFE" fill-opacity="0.311"></rect><rect x="926.8" y="411.9" width="171.9" height="3.1" fill="#FEFEFE" fill-opacity="0.298"></rect><rect x="1258" y="135" width="46.4" height="1.7" fill="#FEFEFE" fill-opacity="0.293"></rect><rect x="859.7" y="370.3" width="77.1" height="2.9" fill="#FEFEFE" fill-opacity="0.42100000000000004"></rect><rect x="884.3" y="129.6" width="89.1" height="1.6" fill="#FEFEFE" fill-opacity="0.263"></rect><rect x="311.2" y="97.5" width="76.7" height="1.5" fill="#FEFEFE" fill-opacity="0.34700000000000003"></rect><rect x="26" y="235.7" width="124.3" height="2.2" fill="#FEFEFE" fill-opacity="0.168"></rect><rect x="295.8" y="249.1" width="89.9" height="2.2" fill="#FEFEFE" fill-opacity="0.389"></rect><rect x="394.5" y="410.7" width="197.5" height="3.1" fill="#FEFEFE" fill-opacity="0.183"></rect><rect x="729.1" y="75.1" width="29.5" height="1.4" fill="#FEFEFE" fill-opacity="0.21600000000000003"></rect><rect x="151.9" y="305.4" width="173" height="2.5" fill="#FEFEFE" fill-opacity="0.22699999999999998"></rect><rect x="464" y="163.4" width="49.9" height="1.8" fill="#FEFEFE" fill-opacity="0.235"></rect><rect x="817.8" y="233.4" width="133.2" height="2.2" fill="#FEFEFE" fill-opacity="0.28"></rect><rect x="74.2" y="310.4" width="125" height="2.6" fill="#FEFEFE" fill-opacity="0.275"></rect><rect x="1198.3" y="396.4" width="130.9" height="3" fill="#FEFEFE" fill-opacity="0.303"></rect><rect x="1055.5" y="282.7" width="65.3" height="2.4" fill="#FEFEFE" fill-opacity="0.303"></rect><rect x="1019.4" y="218.3" width="97.1" height="2.1" fill="#FEFEFE" fill-opacity="0.27899999999999997"></rect><rect x="206" y="194.9" width="133.5" height="2" fill="#FEFEFE" fill-opacity="0.293"></rect><rect x="1084.3" y="301.1" width="47.7" height="2.5" fill="#FEFEFE" fill-opacity="0.253"></rect><rect x="803.4" y="299.9" width="170.3" height="2.5" fill="#FEFEFE" fill-opacity="0.17600000000000002"></rect><rect x="401.2" y="112.9" width="25.4" height="1.6" fill="#FEFEFE" fill-opacity="0.321"></rect><rect x="125.8" y="343.2" width="171.8" height="2.7" fill="#FEFEFE" fill-opacity="0.184"></rect><rect x="643" y="323.5" width="176.5" height="2.6" fill="#FEFEFE" fill-opacity="0.2"></rect><rect x="624.7" y="392" width="48.4" height="3" fill="#FEFEFE" fill-opacity="0.267"></rect><rect x="345.4" y="383.1" width="127.7" height="2.9" fill="#FEFEFE" fill-opacity="0.294"></rect><rect x="627.5" y="403.7" width="94" height="3" fill="#FEFEFE" fill-opacity="0.196"></rect><rect x="1233" y="263" width="31.7" height="2.3" fill="#FEFEFE" fill-opacity="0.292"></rect><rect x="396.7" y="261.9" width="106.8" height="2.3" fill="#FEFEFE" fill-opacity="0.414"></rect><rect x="378.9" y="335.6" width="100.6" height="2.7" fill="#FEFEFE" fill-opacity="0.188"></rect><rect x="398.4" y="371.1" width="124.3" height="2.9" fill="#FEFEFE" fill-opacity="0.17600000000000002"></rect><rect x="710.6" y="343.7" width="173.7" height="2.7" fill="#FEFEFE" fill-opacity="0.304"></rect><rect x="327.3" y="267.5" width="134.3" height="2.3" fill="#FEFEFE" fill-opacity="0.154"></rect><rect x="189" y="374.7" width="109.1" height="2.9" fill="#FEFEFE" fill-opacity="0.226"></rect><rect x="1140.7" y="410.5" width="74.7" height="3.1" fill="#FEFEFE" fill-opacity="0.36200000000000004"></rect><rect x="194.1" y="384.7" width="67.3" height="2.9" fill="#FEFEFE" fill-opacity="0.35200000000000004"></rect><rect x="1295" y="114.5" width="91.1" height="1.6" fill="#FEFEFE" fill-opacity="0.395"></rect><rect x="1217.6" y="291.7" width="55.2" height="2.5" fill="#FEFEFE" fill-opacity="0.179"></rect><rect x="985.9" y="41.1" width="24.1" height="1.2" fill="#FEFEFE" fill-opacity="0.389"></rect><rect x="1221.1" y="331.4" width="76" height="2.7" fill="#FEFEFE" fill-opacity="0.35100000000000003"></rect><rect x="594.7" y="226.3" width="87.2" height="2.1" fill="#FEFEFE" fill-opacity="0.37799999999999995"></rect><rect x="111.4" y="74.6" width="83.1" height="1.4" fill="#FEFEFE" fill-opacity="0.42100000000000004"></rect><rect x="593.4" y="338.5" width="44" height="2.7" fill="#FEFEFE" fill-opacity="0.428"></rect><rect x="320.1" y="295.4" width="142.5" height="2.5" fill="#FEFEFE" fill-opacity="0.294"></rect><rect x="378.4" y="129.1" width="52.8" height="1.6" fill="#FEFEFE" fill-opacity="0.297"></rect><rect x="895.9" y="147.7" width="58" height="1.7" fill="#FEFEFE" fill-opacity="0.409"></rect></svg>