<svg xmlns="http://www.w3.org/2000/svg" viewBox="0 0 900 500" width="900" height="500" data-anchor="bottom" xmlns:c2pa="http://c2pa.org/manifest"><rect x="428" y="80" width="2" height="6" fill="#030303"></rect><rect x="470" y="80" width="2" height="6" fill="#030303"></rect><rect x="428" y="86" width="2" height="4.8" fill="#030303" fill-opacity=".3"></rect><rect x="470" y="86" width="2" height="4.8" fill="#030303" fill-opacity=".3"></rect><rect x="422" y="97.3" width="2.3" height="8.5" fill="#030303"></rect><rect x="475.7" y="97.3" width="2.3" height="8.5" fill="#030303"></rect><rect x="422" y="105.8" width="2.3" height="6.8" fill="#030303" fill-opacity=".3"></rect><rect x="475.7" y="105.8" width="2.3" height="6.8" fill="#030303" fill-opacity=".3"></rect><rect x="409.7" y="132.5" width="3" height="13.5" fill="#030303"></rect><rect x="487.3" y="132.5" width="3" height="13.5" fill="#030303"></rect><rect x="409.7" y="146" width="3" height="10.8" fill="#030303" fill-opacity=".3"></rect><rect x="487.3" y="146" width="3" height="10.8" fill="#030303" fill-opacity=".3"></rect><rect x="393.1" y="180.5" width="3.9" height="20.4" fill="#030303"></rect><rect x="503" y="180.5" width="3.9" height="20.4" fill="#030303"></rect><rect x="393.1" y="200.9" width="3.9" height="16.3" fill="#030303" fill-opacity=".3"></rect><rect x="503" y="200.9" width="3.9" height="16.3" fill="#030303" fill-opacity=".3"></rect><rect x="372.6" y="239.2" width="5" height="28.7" fill="#030303"></rect><rect x="522.3" y="239.2" width="5" height="28.7" fill="#030303"></rect><rect x="372.6" y="268" width="5" height="23" fill="#030303" fill-opacity=".3"></rect><rect x="522.3" y="268" width="5" height="23" fill="#030303" fill-opacity=".3"></rect><rect x="348.9" y="307.6" width="6.3" height="38.5" fill="#030303"></rect><rect x="544.8" y="307.6" width="6.3" height="38.5" fill="#030303"></rect><rect x="348.9" y="346.1" width="6.3" height="30.8" fill="#030303" fill-opacity=".3"></rect><rect x="544.8" y="346.1" width="6.3" height="30.8" fill="#030303" fill-opacity=".3"></rect><rect x="322.1" y="384.7" width="7.8" height="49.5" fill="#030303"></rect><rect x="570.1" y="384.7" width="7.8" height="49.5" fill="#030303"></rect><rect x="322.1" y="434.2" width="7.8" height="39.6" fill="#030303" fill-opacity=".3"></rect><rect x="570.1" y="434.2" width="7.8" height="39.6" fill="#030303" fill-opacity=".3"></rect><rect x="292.5" y="469.9" width="9.4" height="61.7" fill="#030303"></rect><rect x="598.1" y="469.9" width="9.4" height="61.7" fill="#030303"></rect><rect x="292.5" y="531.6" width="9.4" height="49.4" fill="#030303" fill-opacity=".3"></rect><rect x="598.1" y="531.6" width="9.4" height="49.4" fill="#030303" fill-opacity=".3"></rect><polygon points="290,500 610,500 470,80 430,80" fill="#020202"></polygon><polygon points="290,500 610,500 470,80 430,80" fill="#FEFEFE" fill-opacity=".35"></polygon><polygon points="290,500 610,500 612,494 290,494" fill="#030303"></polygon><rect x="430" y="80" width="40" height="0.6" fill="#030303" fill-opacity=".45"></rect><rect x="429" y="83" width="42" height="0.6" fill="#030303" fill-opacity=".45"></rect><rect x="427" y="89.1" width="46" height="0.6" fill="#030303" fill-opacity=".45"></rect><rect x="424.2" y="97.3" width="51.6" height="0.7" fill="#030303" fill-opacity=".45"></rect><rect x="420.8" y="107.5" width="58.3" height="0.7" fill="#030303" fill-opacity=".45"></rect><rect x="416.9" y="119.2" width="66.2" height="0.8" fill="#030303" fill-opacity=".45"></rect><rect x="412.5" y="132.5" width="75" height="0.9" fill="#030303" fill-opacity=".45"></rect><rect x="407.6" y="147.2" width="84.8" height="0.9" fill="#030303" fill-opacity=".45"></rect><rect x="402.3" y="163.2" width="95.5" height="1" fill="#030303" fill-opacity=".45"></rect><rect x="396.5" y="180.5" width="107" height="1.1" fill="#030303" fill-opacity=".45"></rect><rect x="390.3" y="199" width="119.3" height="1.2" fill="#030303" fill-opacity=".45"></rect><rect x="383.8" y="218.5" width="132.4" height="1.3" fill="#030303" fill-opacity=".45"></rect><rect x="376.9" y="239.2" width="146.2" height="1.4" fill="#030303" fill-opacity=".45"></rect><rect x="369.7" y="261" width="160.7" height="1.5" fill="#030303" fill-opacity=".45"></rect><rect x="362.1" y="283.8" width="175.9" height="1.6" fill="#030303" fill-opacity=".45"></rect><rect x="354.1" y="307.6" width="191.7" height="1.7" fill="#030303" fill-opacity=".45"></rect><rect x="345.9" y="332.3" width="208.2" height="1.8" fill="#030303" fill-opacity=".45"></rect><rect x="337.3" y="358" width="225.4" height="1.9" fill="#030303" fill-opacity=".45"></rect><rect x="328.4" y="384.7" width="243.1" height="2.1" fill="#030303" fill-opacity=".45"></rect><rect x="319.3" y="412.2" width="261.5" height="2.2" fill="#030303" fill-opacity=".45"></rect><rect x="309.8" y="440.6" width="280.4" height="2.3" fill="#030303" fill-opacity=".45"></rect><rect x="300" y="469.9" width="299.9" height="2.5" fill="#030303" fill-opacity=".45"></rect><rect x="290" y="500" width="320" height="2.6" fill="#030303" fill-opacity=".45"></rect><rect x="428" y="60" width="4" height="22" fill="#030303"></rect><rect x="468" y="60" width="4" height="22" fill="#030303"></rect></svg>