<svg xmlns="http://www.w3.org/2000/svg" viewBox="0 0 1080 1500" width="1080" height="1500" data-anchor="center" xmlns:c2pa="http://c2pa.org/manifest"><line x1="1004.2" y1="733.8" x2="990.7" y2="808.7" stroke="#FEFEFE" stroke-opacity="0.2" stroke-width="2.1"></line><line x1="580.4" y1="1366.1" x2="568.8" y2="1430.5" stroke="#FEFEFE" stroke-opacity="0.1" stroke-width="2"></line><line x1="981.3" y1="456" x2="970.7" y2="514.8" stroke="#FEFEFE" stroke-opacity="0.3" stroke-width="1.6"></line><line x1="250.9" y1="350.1" x2="236.7" y2="429.4" stroke="#FEFEFE" stroke-opacity="0.3" stroke-width="1.5"></line><line x1="313.8" y1="783.2" x2="304.5" y2="835.1" stroke="#FEFEFE" stroke-opacity="0.2" stroke-width="1.3"></line><line x1="564.4" y1="413.4" x2="556.8" y2="455.4" stroke="#FEFEFE" stroke-opacity="0.3" stroke-width="1.3"></line><line x1="36.5" y1="975" x2="24.5" y2="1041.4" stroke="#FEFEFE" stroke-opacity="0.2" stroke-width="2"></line><line x1="256.2" y1="1061" x2="244.5" y2="1126.2" stroke="#FEFEFE" stroke-opacity="0.2" stroke-width="1.3"></line><line x1="226.1" y1="1058.3" x2="213.5" y2="1128.2" stroke="#FEFEFE" stroke-opacity="0.2" stroke-width="2.2"></line><line x1="841.6" y1="302.2" x2="834.1" y2="344.3" stroke="#FEFEFE" stroke-opacity="0.2" stroke-width="1.1"></line><line x1="566.7" y1="226.1" x2="553.9" y2="297.1" stroke="#FEFEFE" stroke-opacity="0.1" stroke-width="1.6"></line><line x1="1034" y1="1142.7" x2="1022.9" y2="1204.3" stroke="#FEFEFE" stroke-opacity="0.3" stroke-width="1.2"></line><line x1="236.5" y1="820.6" x2="220.3" y2="910.6" stroke="#FEFEFE" stroke-opacity="0.3" stroke-width="1.8"></line><line x1="1137" y1="383.3" x2="1123.8" y2="456.3" stroke="#FEFEFE" stroke-opacity="0.2" stroke-width="1.8"></line><line x1="337.1" y1="347.2" x2="320.8" y2="438" stroke="#FEFEFE" stroke-opacity="0.3" stroke-width="1.4"></line><line x1="244" y1="1443" x2="233.2" y2="1502.6" stroke="#FEFEFE" stroke-opacity="0.3" stroke-width="1.3"></line><line x1="454.4" y1="898.9" x2="444.4" y2="954.6" stroke="#FEFEFE" stroke-opacity="0.3" stroke-width="1.9"></line><line x1="719.2" y1="1316.9" x2="711.6" y2="1359.4" stroke="#FEFEFE" stroke-opacity="0.3" stroke-width="1.4"></line><line x1="610.3" y1="38.6" x2="594" y2="129.2" stroke="#FEFEFE" stroke-opacity="0.3" stroke-width="1.4"></line><line x1="679.8" y1="382.8" x2="666.4" y2="457.2" stroke="#FEFEFE" stroke-opacity="0.2" stroke-width="1.3"></line><line x1="314.3" y1="1273.2" x2="303.9" y2="1330.7" stroke="#FEFEFE" stroke-opacity="0.1" stroke-width="2.3"></line><line x1="588.8" y1="1309.2" x2="573.8" y2="1393" stroke="#FEFEFE" stroke-opacity="0.2" stroke-width="2"></line><line x1="198.2" y1="285.6" x2="188.3" y2="340.5" stroke="#FEFEFE" stroke-opacity="0.3" stroke-width="2.3"></line><line x1="216.7" y1="85.3" x2="204.2" y2="154.8" stroke="#FEFEFE" stroke-opacity="0.2" stroke-width="2.1"></line><line x1="270.5" y1="690.1" x2="254.9" y2="776.8" stroke="#FEFEFE" stroke-opacity="0.2" stroke-width="1.4"></line><line x1="162.9" y1="455.1" x2="148.8" y2="533.8" stroke="#FEFEFE" stroke-opacity="0.3" stroke-width="1.5"></line><line x1="952.2" y1="936.2" x2="938.5" y2="1012.2" stroke="#FEFEFE" stroke-opacity="0.3" stroke-width="1.8"></line><line x1="101.9" y1="108" x2="86.4" y2="194.4" stroke="#FEFEFE" stroke-opacity="0.3" stroke-width="2.2"></line><line x1="1124.8" y1="173.3" x2="1110.5" y2="252.5" stroke="#FEFEFE" stroke-opacity="0.2" stroke-width="1.9"></line><line x1="305.9" y1="1385" x2="289.4" y2="1477.1" stroke="#FEFEFE" stroke-opacity="0.1" stroke-width="1.6"></line><line x1="24.6" y1="-46.8" x2="11.2" y2="27.3" stroke="#FEFEFE" stroke-opacity="0.1" stroke-width="1.5"></line><line x1="707.4" y1="728.5" x2="691.8" y2="815.4" stroke="#FEFEFE" stroke-opacity="0.3" stroke-width="2"></line><line x1="833.2" y1="918.5" x2="825.3" y2="962.7" stroke="#FEFEFE" stroke-opacity="0.3" stroke-width="1.1"></line><line x1="774.3" y1="359" x2="765.2" y2="409.3" stroke="#FEFEFE" stroke-opacity="0.2" stroke-width="1.2"></line><line x1="184.9" y1="736" x2="175.3" y2="789.7" stroke="#FEFEFE" stroke-opacity="0.2" stroke-width="2.1"></line><line x1="1004.5" y1="333" x2="990.8" y2="409.3" stroke="#FEFEFE" stroke-opacity="0.1" stroke-width="1.6"></line><line x1="911.9" y1="1049.2" x2="903.6" y2="1095.3" stroke="#FEFEFE" stroke-opacity="0.3" stroke-width="1.7"></line><line x1="874" y1="1048.4" x2="865.8" y2="1093.7" stroke="#FEFEFE" stroke-opacity="0.3" stroke-width="1.9"></line><line x1="808.3" y1="846.1" x2="797.4" y2="906.9" stroke="#FEFEFE" stroke-opacity="0.2" stroke-width="1.6"></line><line x1="703.7" y1="1027.6" x2="693.1" y2="1086.6" stroke="#FEFEFE" stroke-opacity="0.3" stroke-width="1.6"></line><line x1="1151.2" y1="687.7" x2="1135.8" y2="773.2" stroke="#FEFEFE" stroke-opacity="0.3" stroke-width="1.7"></line><line x1="229.3" y1="1330.4" x2="214.5" y2="1412.2" stroke="#FEFEFE" stroke-opacity="0.2" stroke-width="1.9"></line><line x1="1158.3" y1="200.4" x2="1150.1" y2="246" stroke="#FEFEFE" stroke-opacity="0.2" stroke-width="1.3"></line><line x1="325.7" y1="1419" x2="314.7" y2="1479.9" stroke="#FEFEFE" stroke-opacity="0.2" stroke-width="2"></line><line x1="665" y1="837.6" x2="653.7" y2="900.6" stroke="#FEFEFE" stroke-opacity="0.3" stroke-width="1.4"></line><line x1="1076.5" y1="729.6" x2="1065" y2="793.6" stroke="#FEFEFE" stroke-opacity="0.1" stroke-width="2.2"></line><line x1="434" y1="412.4" x2="422.1" y2="479" stroke="#FEFEFE" stroke-opacity="0.2" stroke-width="1.6"></line><line x1="453.6" y1="572.4" x2="437.4" y2="662.4" stroke="#FEFEFE" stroke-opacity="0.3" stroke-width="1.6"></line><line x1="964.5" y1="702.9" x2="957" y2="744.7" stroke="#FEFEFE" stroke-opacity="0.3" stroke-width="1.7"></line><line x1="593.1" y1="766.1" x2="576.1" y2="860.6" stroke="#FEFEFE" stroke-opacity="0.3" stroke-width="2.1"></line><line x1="164" y1="1213.9" x2="156.4" y2="1255.7" stroke="#FEFEFE" stroke-opacity="0.3" stroke-width="1.2"></line><line x1="716" y1="710.1" x2="702.6" y2="784.8" stroke="#FEFEFE" stroke-opacity="0.2" stroke-width="1.5"></line><line x1="871.4" y1="404.1" x2="854.8" y2="496.6" stroke="#FEFEFE" stroke-opacity="0.3" stroke-width="1.9"></line><line x1="705.8" y1="385.1" x2="697" y2="433.8" stroke="#FEFEFE" stroke-opacity="0.2" stroke-width="1.7"></line><line x1="116.1" y1="419.6" x2="100" y2="509.3" stroke="#FEFEFE" stroke-opacity="0.3" stroke-width="1.5"></line><line x1="755.4" y1="376" x2="747.9" y2="417.4" stroke="#FEFEFE" stroke-opacity="0.1" stroke-width="1.2"></line><line x1="15.5" y1="609.2" x2="0.2" y2="694.3" stroke="#FEFEFE" stroke-opacity="0.3" stroke-width="1.3"></line><line x1="517.1" y1="926.8" x2="508.5" y2="974.7" stroke="#FEFEFE" stroke-opacity="0.1" stroke-width="1.8"></line><line x1="3.3" y1="772.9" x2="-5.5" y2="821.5" stroke="#FEFEFE" stroke-opacity="0.3" stroke-width="1.3"></line><line x1="908.9" y1="1418.9" x2="893.3" y2="1505.4" stroke="#FEFEFE" stroke-opacity="0.2" stroke-width="1.2"></line><line x1="1128.5" y1="950.7" x2="1115.4" y2="1023.4" stroke="#FEFEFE" stroke-opacity="0.3" stroke-width="1.6"></line><line x1="1069.1" y1="183.3" x2="1057.6" y2="247.3" stroke="#FEFEFE" stroke-opacity="0.2" stroke-width="1.4"></line><line x1="692.6" y1="1111.3" x2="679" y2="1186.5" stroke="#FEFEFE" stroke-opacity="0.3" stroke-width="1.6"></line><line x1="376.4" y1="1373.8" x2="366.8" y2="1427" stroke="#FEFEFE" stroke-opacity="0.2" stroke-width="1.6"></line><line x1="728.9" y1="630.1" x2="712.5" y2="721.5" stroke="#FEFEFE" stroke-opacity="0.3" stroke-width="1.3"></line><line x1="659.7" y1="558" x2="648.8" y2="618.5" stroke="#FEFEFE" stroke-opacity="0.3" stroke-width="1.2"></line><line x1="548.7" y1="428.5" x2="531.9" y2="521.9" stroke="#FEFEFE" stroke-opacity="0.1" stroke-width="1.8"></line><line x1="202.2" y1="425.8" x2="191.8" y2="483.8" stroke="#FEFEFE" stroke-opacity="0.2" stroke-width="1.9"></line><line x1="326.1" y1="-13.5" x2="311.5" y2="67.7" stroke="#FEFEFE" stroke-opacity="0.3" stroke-width="1.8"></line><line x1="1035.1" y1="860.5" x2="1024.7" y2="918.2" stroke="#FEFEFE" stroke-opacity="0.3" stroke-width="2"></line><line x1="157.4" y1="1256.5" x2="144.9" y2="1326.3" stroke="#FEFEFE" stroke-opacity="0.3" stroke-width="1.9"></line><line x1="539.9" y1="1156.8" x2="523.4" y2="1248.4" stroke="#FEFEFE" stroke-opacity="0.3" stroke-width="2"></line><line x1="171.5" y1="842" x2="161.2" y2="898.8" stroke="#FEFEFE" stroke-opacity="0.3" stroke-width="1.6"></line><line x1="181.9" y1="458.5" x2="172.7" y2="509.6" stroke="#FEFEFE" stroke-opacity="0.1" stroke-width="2"></line><line x1="771.2" y1="548.2" x2="762.6" y2="596.2" stroke="#FEFEFE" stroke-opacity="0.3" stroke-width="2"></line><line x1="526.7" y1="222.3" x2="511" y2="309.5" stroke="#FEFEFE" stroke-opacity="0.3" stroke-width="2.3"></line><line x1="436.9" y1="855.2" x2="421.8" y2="939.4" stroke="#FEFEFE" stroke-opacity="0.3" stroke-width="2.2"></line><line x1="789.6" y1="1477.7" x2="776.8" y2="1548.7" stroke="#FEFEFE" stroke-opacity="0.3" stroke-width="1.1"></line><line x1="612.9" y1="1200.2" x2="603.7" y2="1251.3" stroke="#FEFEFE" stroke-opacity="0.1" stroke-width="1.6"></line><line x1="1161.1" y1="587.1" x2="1152.4" y2="635.2" stroke="#FEFEFE" stroke-opacity="0.2" stroke-width="1.2"></line><line x1="932.9" y1="44.5" x2="917.1" y2="132.5" stroke="#FEFEFE" stroke-opacity="0.2" stroke-width="1.7"></line><line x1="764" y1="1222.2" x2="748.2" y2="1310.2" stroke="#FEFEFE" stroke-opacity="0.3" stroke-width="1.5"></line><line x1="612.8" y1="181.4" x2="598.5" y2="261" stroke="#FEFEFE" stroke-opacity="0.3" stroke-width="1.4"></line><line x1="598.8" y1="657.4" x2="591" y2="700.7" stroke="#FEFEFE" stroke-opacity="0.3" stroke-width="1.8"></line><line x1="813.2" y1="226.4" x2="797.3" y2="314.7" stroke="#FEFEFE" stroke-opacity="0.2" stroke-width="2.1"></line><line x1="584.7" y1="678" x2="571.4" y2="751.9" stroke="#FEFEFE" stroke-opacity="0.2" stroke-width="2.1"></line><line x1="1068.7" y1="1194.5" x2="1056.5" y2="1262.5" stroke="#FEFEFE" stroke-opacity="0.3" stroke-width="1.6"></line><line x1="801.2" y1="1200.2" x2="790.4" y2="1260.3" stroke="#FEFEFE" stroke-opacity="0.3" stroke-width="1.6"></line><line x1="528.6" y1="928.7" x2="518.1" y2="987.4" stroke="#FEFEFE" stroke-opacity="0.3" stroke-width="2.1"></line><line x1="254.3" y1="334.3" x2="245.5" y2="383.1" stroke="#FEFEFE" stroke-opacity="0.2" stroke-width="1.6"></line><line x1="817.9" y1="1152.3" x2="807.8" y2="1208.5" stroke="#FEFEFE" stroke-opacity="0.2" stroke-width="1.6"></line><line x1="784.2" y1="1081.5" x2="776.4" y2="1125" stroke="#FEFEFE" stroke-opacity="0.2" stroke-width="2.3"></line><line x1="558.9" y1="205.1" x2="543.1" y2="292.8" stroke="#FEFEFE" stroke-opacity="0.3" stroke-width="1.1"></line><line x1="702.4" y1="230.5" x2="692.4" y2="285.9" stroke="#FEFEFE" stroke-opacity="0.2" stroke-width="2.2"></line><line x1="650.6" y1="373.8" x2="635.2" y2="459.8" stroke="#FEFEFE" stroke-opacity="0.1" stroke-width="1.6"></line><line x1="314.2" y1="478.8" x2="299.7" y2="559.1" stroke="#FEFEFE" stroke-opacity="0.2" stroke-width="2.1"></line><line x1="915.6" y1="949.9" x2="902.8" y2="1021.1" stroke="#FEFEFE" stroke-opacity="0.2" stroke-width="1.1"></line><line x1="716.1" y1="406.8" x2="705.3" y2="466.6" stroke="#FEFEFE" stroke-opacity="0.2" stroke-width="1.3"></line><line x1="406.2" y1="113.2" x2="390.5" y2="200" stroke="#FEFEFE" stroke-opacity="0.2" stroke-width="2"></line><line x1="756.2" y1="526.1" x2="745.9" y2="583.1" stroke="#FEFEFE" stroke-opacity="0.3" stroke-width="2.2"></line><line x1="214.4" y1="1345.4" x2="205.8" y2="1393.4" stroke="#FEFEFE" stroke-opacity="0.3" stroke-width="1.6"></line><line x1="848.9" y1="1331" x2="838.9" y2="1386.5" stroke="#FEFEFE" stroke-opacity="0.2" stroke-width="1.5"></line><line x1="1132.9" y1="355.8" x2="1124.3" y2="404" stroke="#FEFEFE" stroke-opacity="0.2" stroke-width="2.1"></line><line x1="851.1" y1="1286.2" x2="838.7" y2="1355" stroke="#FEFEFE" stroke-opacity="0.3" stroke-width="2"></line><line x1="1078.8" y1="334" x2="1070.4" y2="380.5" stroke="#FEFEFE" stroke-opacity="0.1" stroke-width="1.5"></line><line x1="535.1" y1="422" x2="522.6" y2="491.2" stroke="#FEFEFE" stroke-opacity="0.3" stroke-width="1.2"></line><line x1="1167.6" y1="787.7" x2="1150.7" y2="881.4" stroke="#FEFEFE" stroke-opacity="0.1" stroke-width="1.7"></line><line x1="623.6" y1="350.5" x2="611.4" y2="417.9" stroke="#FEFEFE" stroke-opacity="0.2" stroke-width="1.2"></line><line x1="1075.9" y1="98" x2="1060.1" y2="185.4" stroke="#FEFEFE" stroke-opacity="0.2" stroke-width="1.6"></line><line x1="1073.7" y1="1331.7" x2="1064.2" y2="1384.7" stroke="#FEFEFE" stroke-opacity="0.2" stroke-width="1.5"></line><line x1="711.9" y1="640.8" x2="695.6" y2="731.4" stroke="#FEFEFE" stroke-opacity="0.2" stroke-width="2.1"></line><line x1="455.6" y1="573.9" x2="440.3" y2="658.6" stroke="#FEFEFE" stroke-opacity="0.2" stroke-width="1.8"></line><line x1="167.6" y1="1247.4" x2="155.8" y2="1312.9" stroke="#FEFEFE" stroke-opacity="0.3" stroke-width="1.1"></line><line x1="68" y1="394.5" x2="56.4" y2="458.9" stroke="#FEFEFE" stroke-opacity="0.2" stroke-width="1.2"></line><line x1="300.2" y1="0.3" x2="285.7" y2="81" stroke="#FEFEFE" stroke-opacity="0.2" stroke-width="2"></line><line x1="692.7" y1="1255.4" x2="679.3" y2="1330.3" stroke="#FEFEFE" stroke-opacity="0.1" stroke-width="2"></line><line x1="575" y1="1283.4" x2="559.4" y2="1370.3" stroke="#FEFEFE" stroke-opacity="0.2" stroke-width="1.4"></line><line x1="483.5" y1="345" x2="474.5" y2="395.1" stroke="#FEFEFE" stroke-opacity="0.2" stroke-width="2.1"></line><line x1="581.5" y1="1008.2" x2="571.2" y2="1065.6" stroke="#FEFEFE" stroke-opacity="0.1" stroke-width="1.4"></line><line x1="488.4" y1="1105.5" x2="474.3" y2="1183.9" stroke="#FEFEFE" stroke-opacity="0.2" stroke-width="2.2"></line><line x1="97.1" y1="1233.3" x2="84" y2="1306.4" stroke="#FEFEFE" stroke-opacity="0.3" stroke-width="1.4"></line><line x1="923.8" y1="1450.9" x2="906.7" y2="1545.6" stroke="#FEFEFE" stroke-opacity="0.3" stroke-width="1.4"></line><line x1="154.2" y1="597.1" x2="146.6" y2="639.4" stroke="#FEFEFE" stroke-opacity="0.2" stroke-width="2.1"></line><line x1="548.2" y1="113" x2="535.5" y2="183.8" stroke="#FEFEFE" stroke-opacity="0.3" stroke-width="1.3"></line><line x1="263.2" y1="291" x2="251.6" y2="355.6" stroke="#FEFEFE" stroke-opacity="0.3" stroke-width="1.4"></line><line x1="29.5" y1="1331.7" x2="12.4" y2="1426.7" stroke="#FEFEFE" stroke-opacity="0.1" stroke-width="2.1"></line><line x1="915.9" y1="1286.2" x2="903.5" y2="1355.3" stroke="#FEFEFE" stroke-opacity="0.3" stroke-width="1.5"></line><line x1="1072.2" y1="869.1" x2="1063.8" y2="915.7" stroke="#FEFEFE" stroke-opacity="0.3" stroke-width="1.4"></line><line x1="648.2" y1="44.2" x2="639.9" y2="90.3" stroke="#FEFEFE" stroke-opacity="0.3" stroke-width="2.3"></line><line x1="489.7" y1="1005.4" x2="476.3" y2="1079.8" stroke="#FEFEFE" stroke-opacity="0.3" stroke-width="2.1"></line><line x1="193.9" y1="1055.2" x2="178.9" y2="1138.2" stroke="#FEFEFE" stroke-opacity="0.3" stroke-width="1.2"></line><line x1="456.7" y1="1467.4" x2="446.2" y2="1525.7" stroke="#FEFEFE" stroke-opacity="0.3" stroke-width="1.3"></line><line x1="576.4" y1="765.3" x2="567.4" y2="814.8" stroke="#FEFEFE" stroke-opacity="0.3" stroke-width="1.5"></line><line x1="499.3" y1="1226" x2="486.8" y2="1295.7" stroke="#FEFEFE" stroke-opacity="0.2" stroke-width="1.9"></line><line x1="393.5" y1="647.9" x2="377.6" y2="736.2" stroke="#FEFEFE" stroke-opacity="0.3" stroke-width="2.1"></line><line x1="819.4" y1="331.9" x2="810.4" y2="381.7" stroke="#FEFEFE" stroke-opacity="0.2" stroke-width="2"></line><line x1="469.9" y1="586" x2="453.2" y2="678.5" stroke="#FEFEFE" stroke-opacity="0.2" stroke-width="1.4"></line><line x1="127.5" y1="304.6" x2="115.6" y2="370.7" stroke="#FEFEFE" stroke-opacity="0.2" stroke-width="2"></line><line x1="765" y1="745.7" x2="753.1" y2="811.7" stroke="#FEFEFE" stroke-opacity="0.2" stroke-width="1.3"></line><line x1="884.9" y1="95.1" x2="871.6" y2="169.4" stroke="#FEFEFE" stroke-opacity="0.3" stroke-width="1.5"></line><line x1="551.2" y1="1475.3" x2="535.5" y2="1562.8" stroke="#FEFEFE" stroke-opacity="0.3" stroke-width="1.3"></line><line x1="458.2" y1="1364.5" x2="441.8" y2="1455.6" stroke="#FEFEFE" stroke-opacity="0.2" stroke-width="1.4"></line><line x1="901.8" y1="840.4" x2="888.1" y2="916.4" stroke="#FEFEFE" stroke-opacity="0.3" stroke-width="2.3"></line><line x1="508.6" y1="375.8" x2="492.3" y2="466.2" stroke="#FEFEFE" stroke-opacity="0.2" stroke-width="1.2"></line><line x1="648.7" y1="991.9" x2="635.1" y2="1067.3" stroke="#FEFEFE" stroke-opacity="0.3" stroke-width="1.5"></line><line x1="438.7" y1="509.2" x2="427.8" y2="569.9" stroke="#FEFEFE" stroke-opacity="0.1" stroke-width="2.1"></line><line x1="1066.1" y1="199.6" x2="1049.4" y2="292.3" stroke="#FEFEFE" stroke-opacity="0.3" stroke-width="2.3"></line><line x1="394.2" y1="-18.7" x2="384" y2="37.9" stroke="#FEFEFE" stroke-opacity="0.3" stroke-width="1.5"></line><line x1="1043.7" y1="537.2" x2="1030.6" y2="610" stroke="#FEFEFE" stroke-opacity="0.2" stroke-width="1.5"></line><line x1="1063.1" y1="1426.7" x2="1053.2" y2="1481.6" stroke="#FEFEFE" stroke-opacity="0.3" stroke-width="1.9"></line><line x1="966.4" y1="1487.8" x2="956.6" y2="1542.1" stroke="#FEFEFE" stroke-opacity="0.2" stroke-width="1.5"></line><line x1="24.4" y1="795.4" x2="16.7" y2="837.8" stroke="#FEFEFE" stroke-opacity="0.3" stroke-width="1.4"></line><line x1="66" y1="1451.6" x2="51.1" y2="1534.1" stroke="#FEFEFE" stroke-opacity="0.2" stroke-width="1.9"></line><line x1="279.1" y1="1256.5" x2="267.8" y2="1319.2" stroke="#FEFEFE" stroke-opacity="0.2" stroke-width="1.9"></line><line x1="746.8" y1="1011.5" x2="730.4" y2="1102.7" stroke="#FEFEFE" stroke-opacity="0.3" stroke-width="1.6"></line><line x1="490.3" y1="650.4" x2="475.6" y2="731.9" stroke="#FEFEFE" stroke-opacity="0.2" stroke-width="2"></line><line x1="1048.2" y1="195.4" x2="1036.9" y2="258.4" stroke="#FEFEFE" stroke-opacity="0.3" stroke-width="1.3"></line><line x1="696.1" y1="60.5" x2="682.9" y2="134" stroke="#FEFEFE" stroke-opacity="0.3" stroke-width="1.2"></line><line x1="1066.8" y1="708.5" x2="1057.8" y2="758.2" stroke="#FEFEFE" stroke-opacity="0.3" stroke-width="2.1"></line><line x1="1021.5" y1="472.3" x2="1009.4" y2="539.7" stroke="#FEFEFE" stroke-opacity="0.2" stroke-width="1.8"></line><line x1="263.1" y1="1329" x2="251" y2="1396.1" stroke="#FEFEFE" stroke-opacity="0.3" stroke-width="1.4"></line><line x1="817.9" y1="475.1" x2="806.1" y2="540.7" stroke="#FEFEFE" stroke-opacity="0.2" stroke-width="1.5"></line><line x1="929.8" y1="581" x2="921.1" y2="629.3" stroke="#FEFEFE" stroke-opacity="0.1" stroke-width="2.3"></line><line x1="568" y1="1485" x2="553.5" y2="1565.6" stroke="#FEFEFE" stroke-opacity="0.2" stroke-width="2"></line><line x1="602.4" y1="232.4" x2="590.3" y2="299.5" stroke="#FEFEFE" stroke-opacity="0.2" stroke-width="1.4"></line><line x1="359.5" y1="12.4" x2="349" y2="70.8" stroke="#FEFEFE" stroke-opacity="0.3" stroke-width="2.1"></line><line x1="459.5" y1="157.7" x2="445" y2="238" stroke="#FEFEFE" stroke-opacity="0.1" stroke-width="1.8"></line><line x1="873.9" y1="611.8" x2="866.5" y2="653" stroke="#FEFEFE" stroke-opacity="0.1" stroke-width="1.7"></line><line x1="197.9" y1="1204.6" x2="186.3" y2="1269" stroke="#FEFEFE" stroke-opacity="0.2" stroke-width="2.1"></line><line x1="691.5" y1="1246.1" x2="681.4" y2="1301.9" stroke="#FEFEFE" stroke-opacity="0.3" stroke-width="2.2"></line><line x1="933.4" y1="128.7" x2="923.1" y2="186" stroke="#FEFEFE" stroke-opacity="0.1" stroke-width="1.2"></line><line x1="743.7" y1="221.5" x2="728.1" y2="308" stroke="#FEFEFE" stroke-opacity="0.3" stroke-width="2"></line><line x1="108.3" y1="1385.6" x2="100.5" y2="1429.3" stroke="#FEFEFE" stroke-opacity="0.2" stroke-width="1.4"></line><line x1="152.9" y1="329.6" x2="143.5" y2="381.9" stroke="#FEFEFE" stroke-opacity="0.2" stroke-width="1.2"></line><line x1="336.7" y1="679.1" x2="329.5" y2="719.6" stroke="#FEFEFE" stroke-opacity="0.2" stroke-width="1.3"></line><line x1="353.4" y1="-38.5" x2="346.2" y2="1.6" stroke="#FEFEFE" stroke-opacity="0.3" stroke-width="1.6"></line><line x1="1121.1" y1="1245.8" x2="1112.7" y2="1292.6" stroke="#FEFEFE" stroke-opacity="0.3" stroke-width="1.8"></line><line x1="940.8" y1="1383.7" x2="925.7" y2="1467.8" stroke="#FEFEFE" stroke-opacity="0.3" stroke-width="2.1"></line><line x1="761.4" y1="779.4" x2="744.7" y2="872" stroke="#FEFEFE" stroke-opacity="0.3" stroke-width="2.1"></line><line x1="564.5" y1="271.5" x2="550.1" y2="351.4" stroke="#FEFEFE" stroke-opacity="0.3" stroke-width="2.1"></line><line x1="336.1" y1="673.5" x2="322.8" y2="746.9" stroke="#FEFEFE" stroke-opacity="0.2" stroke-width="1.3"></line><line x1="1036.4" y1="617.6" x2="1021.3" y2="701.5" stroke="#FEFEFE" stroke-opacity="0.1" stroke-width="1.1"></line><line x1="311.1" y1="1492" x2="299.4" y2="1556.6" stroke="#FEFEFE" stroke-opacity="0.1" stroke-width="1.6"></line><line x1="48.6" y1="388.6" x2="33.4" y2="472.6" stroke="#FEFEFE" stroke-opacity="0.3" stroke-width="2"></line><line x1="555.7" y1="684.8" x2="546.2" y2="737.5" stroke="#FEFEFE" stroke-opacity="0.1" stroke-width="1.6"></line><line x1="618.2" y1="548.1" x2="604.4" y2="625" stroke="#FEFEFE" stroke-opacity="0.3" stroke-width="1.5"></line><line x1="921.5" y1="1100.5" x2="913.1" y2="1147.5" stroke="#FEFEFE" stroke-opacity="0.3" stroke-width="2.2"></line><line x1="1005.8" y1="57.3" x2="997.8" y2="101.7" stroke="#FEFEFE" stroke-opacity="0.2" stroke-width="1.3"></line><line x1="545.5" y1="1317.2" x2="528.4" y2="1411.9" stroke="#FEFEFE" stroke-opacity="0.1" stroke-width="1.6"></line><line x1="397.8" y1="1221.8" x2="382" y2="1309.7" stroke="#FEFEFE" stroke-opacity="0.3" stroke-width="1.6"></line><line x1="883.1" y1="202.2" x2="872.8" y2="259.5" stroke="#FEFEFE" stroke-opacity="0.3" stroke-width="2.3"></line><line x1="1007" y1="730.7" x2="993.6" y2="804.8" stroke="#FEFEFE" stroke-opacity="0.3" stroke-width="1.9"></line><line x1="889.4" y1="183.5" x2="872.6" y2="277.1" stroke="#FEFEFE" stroke-opacity="0.2" stroke-width="1.7"></line><line x1="610.1" y1="850.6" x2="599.7" y2="908.7" stroke="#FEFEFE" stroke-opacity="0.3" stroke-width="1.8"></line><line x1="282.4" y1="487.8" x2="271.1" y2="550.3" stroke="#FEFEFE" stroke-opacity="0.2" stroke-width="1.5"></line><line x1="1129.9" y1="1096.1" x2="1114.8" y2="1180.4" stroke="#FEFEFE" stroke-opacity="0.3" stroke-width="1.9"></line><line x1="1134.5" y1="698.1" x2="1118.8" y2="785" stroke="#FEFEFE" stroke-opacity="0.2" stroke-width="1.1"></line><line x1="510.9" y1="99.8" x2="495.9" y2="182.9" stroke="#FEFEFE" stroke-opacity="0.3" stroke-width="1.1"></line><line x1="313.3" y1="1403.5" x2="299.4" y2="1480.8" stroke="#FEFEFE" stroke-opacity="0.1" stroke-width="1.8"></line><line x1="534" y1="139" x2="524.7" y2="190.5" stroke="#FEFEFE" stroke-opacity="0.3" stroke-width="1.6"></line><line x1="1058.6" y1="1019" x2="1049.6" y2="1069.3" stroke="#FEFEFE" stroke-opacity="0.2" stroke-width="2.1"></line><line x1="280.9" y1="1492.7" x2="267.2" y2="1569.1" stroke="#FEFEFE" stroke-opacity="0.2" stroke-width="1.4"></line><line x1="906.9" y1="256.3" x2="892.7" y2="334.9" stroke="#FEFEFE" stroke-opacity="0.2" stroke-width="1.5"></line><line x1="1003.7" y1="45.1" x2="986.8" y2="138.8" stroke="#FEFEFE" stroke-opacity="0.3" stroke-width="1.3"></line><line x1="384.4" y1="1272.6" x2="370.9" y2="1348" stroke="#FEFEFE" stroke-opacity="0.3" stroke-width="1.4"></line><line x1="360.8" y1="1244.4" x2="350.1" y2="1304.1" stroke="#FEFEFE" stroke-opacity="0.2" stroke-width="2.2"></line><line x1="131.7" y1="951.3" x2="116.7" y2="1034.4" stroke="#FEFEFE" stroke-opacity="0.2" stroke-width="1.9"></line><line x1="869.4" y1="863.8" x2="861.5" y2="907.8" stroke="#FEFEFE" stroke-opacity="0.2" stroke-width="1.8"></line><line x1="1064.6" y1="1310.3" x2="1053.2" y2="1373.9" stroke="#FEFEFE" stroke-opacity="0.3" stroke-width="1.2"></line><line x1="422.6" y1="1289.9" x2="410.8" y2="1355.6" stroke="#FEFEFE" stroke-opacity="0.3" stroke-width="1.7"></line><line x1="79.7" y1="1377.4" x2="71" y2="1425.3" stroke="#FEFEFE" stroke-opacity="0.1" stroke-width="2.2"></line><line x1="584.7" y1="956.9" x2="572.6" y2="1023.8" stroke="#FEFEFE" stroke-opacity="0.1" stroke-width="1.2"></line><line x1="465.6" y1="689.8" x2="456.2" y2="741.5" stroke="#FEFEFE" stroke-opacity="0.2" stroke-width="1.5"></line><line x1="27.7" y1="1316.2" x2="14.3" y2="1390.8" stroke="#FEFEFE" stroke-opacity="0.2" stroke-width="1.2"></line><line x1="983.1" y1="380.7" x2="970.2" y2="452.5" stroke="#FEFEFE" stroke-opacity="0.2" stroke-width="1.4"></line><line x1="539.6" y1="835.1" x2="532.1" y2="876.9" stroke="#FEFEFE" stroke-opacity="0.3" stroke-width="1.7"></line><line x1="926.1" y1="751.4" x2="913.3" y2="822.2" stroke="#FEFEFE" stroke-opacity="0.3" stroke-width="2.2"></line><line x1="274" y1="366.8" x2="265.6" y2="413.4" stroke="#FEFEFE" stroke-opacity="0.3" stroke-width="1.3"></line><line x1="321.1" y1="777.7" x2="305.2" y2="866.4" stroke="#FEFEFE" stroke-opacity="0.2" stroke-width="1.8"></line><line x1="161.5" y1="1489.4" x2="149.5" y2="1556.4" stroke="#FEFEFE" stroke-opacity="0.2" stroke-width="2.2"></line><line x1="347.1" y1="862.4" x2="335.6" y2="926.2" stroke="#FEFEFE" stroke-opacity="0.2" stroke-width="1.9"></line><line x1="270.8" y1="741.6" x2="263" y2="784.9" stroke="#FEFEFE" stroke-opacity="0.2" stroke-width="2"></line><line x1="1161.6" y1="682.4" x2="1148.1" y2="757.9" stroke="#FEFEFE" stroke-opacity="0.3" stroke-width="1.4"></line><line x1="146.6" y1="528.1" x2="131.3" y2="613.5" stroke="#FEFEFE" stroke-opacity="0.2" stroke-width="1.5"></line><line x1="274.5" y1="1169.8" x2="264.1" y2="1227.5" stroke="#FEFEFE" stroke-opacity="0.2" stroke-width="2"></line><line x1="861.2" y1="198.8" x2="848" y2="272.6" stroke="#FEFEFE" stroke-opacity="0.2" stroke-width="1.1"></line><line x1="1053.1" y1="659.1" x2="1044.9" y2="704.4" stroke="#FEFEFE" stroke-opacity="0.3" stroke-width="1.7"></line><line x1="208.4" y1="610.4" x2="193.7" y2="692.3" stroke="#FEFEFE" stroke-opacity="0.2" stroke-width="1.3"></line><line x1="756.9" y1="1442.1" x2="748.3" y2="1490" stroke="#FEFEFE" stroke-opacity="0.2" stroke-width="1.9"></line><line x1="337.1" y1="734.1" x2="320.4" y2="827" stroke="#FEFEFE" stroke-opacity="0.2" stroke-width="1.8"></line><line x1="500.6" y1="947.3" x2="488.1" y2="1016.7" stroke="#FEFEFE" stroke-opacity="0.3" stroke-width="1.4"></line><line x1="385.4" y1="335" x2="377.4" y2="379.5" stroke="#FEFEFE" stroke-opacity="0.2" stroke-width="2"></line><line x1="262.6" y1="714.6" x2="249.6" y2="786.4" stroke="#FEFEFE" stroke-opacity="0.3" stroke-width="2"></line><line x1="125.7" y1="1122.3" x2="117.5" y2="1167.7" stroke="#FEFEFE" stroke-opacity="0.3" stroke-width="2"></line><line x1="143.2" y1="146.4" x2="130.8" y2="215.3" stroke="#FEFEFE" stroke-opacity="0.3" stroke-width="2.1"></line><line x1="307.8" y1="699.3" x2="299" y2="748.2" stroke="#FEFEFE" stroke-opacity="0.3" stroke-width="1.8"></line><line x1="676" y1="1042.9" x2="660.3" y2="1130.2" stroke="#FEFEFE" stroke-opacity="0.3" stroke-width="1.4"></line><line x1="550.7" y1="522.8" x2="540.3" y2="580.9" stroke="#FEFEFE" stroke-opacity="0.1" stroke-width="2.2"></line><line x1="1113.5" y1="119.5" x2="1106" y2="161" stroke="#FEFEFE" stroke-opacity="0.2" stroke-width="1.4"></line><line x1="829.3" y1="388.1" x2="816" y2="462" stroke="#FEFEFE" stroke-opacity="0.3" stroke-width="2.2"></line><line x1="1169.2" y1="1288.9" x2="1154.4" y2="1370.7" stroke="#FEFEFE" stroke-opacity="0.3" stroke-width="2.2"></line><line x1="1095.7" y1="437.9" x2="1087.1" y2="485.8" stroke="#FEFEFE" stroke-opacity="0.3" stroke-width="2.2"></line><line x1="454.7" y1="-46.9" x2="438.3" y2="44.1" stroke="#FEFEFE" stroke-opacity="0.2" stroke-width="1.2"></line><line x1="541.7" y1="872.9" x2="525.1" y2="965.3" stroke="#FEFEFE" stroke-opacity="0.3" stroke-width="1.7"></line><line x1="972.1" y1="446.7" x2="955.1" y2="541.3" stroke="#FEFEFE" stroke-opacity="0.3" stroke-width="1.1"></line><line x1="1019.9" y1="895.2" x2="1010.4" y2="947.8" stroke="#FEFEFE" stroke-opacity="0.2" stroke-width="1.5"></line><line x1="894.8" y1="1274.7" x2="885.8" y2="1324.7" stroke="#FEFEFE" stroke-opacity="0.2" stroke-width="1.6"></line><line x1="390.9" y1="933.8" x2="375.9" y2="1017.2" stroke="#FEFEFE" stroke-opacity="0.3" stroke-width="1.2"></line><line x1="144.5" y1="467.2" x2="136" y2="514.2" stroke="#FEFEFE" stroke-opacity="0.2" stroke-width="1.5"></line><line x1="95.8" y1="1296.8" x2="84.2" y2="1361.3" stroke="#FEFEFE" stroke-opacity="0.2" stroke-width="1.2"></line><line x1="874.4" y1="981.8" x2="858.9" y2="1067.7" stroke="#FEFEFE" stroke-opacity="0.1" stroke-width="2.2"></line><line x1="1141.3" y1="156" x2="1133.7" y2="198.1" stroke="#FEFEFE" stroke-opacity="0.2" stroke-width="1.6"></line><line x1="994.4" y1="76.7" x2="984" y2="134.4" stroke="#FEFEFE" stroke-opacity="0.2" stroke-width="1.1"></line><line x1="312.5" y1="862.9" x2="297.5" y2="946.4" stroke="#FEFEFE" stroke-opacity="0.3" stroke-width="1.7"></line><line x1="77.1" y1="1025.2" x2="66.2" y2="1085.5" stroke="#FEFEFE" stroke-opacity="0.2" stroke-width="1.5"></line><line x1="1032.1" y1="347" x2="1017.9" y2="426" stroke="#FEFEFE" stroke-opacity="0.1" stroke-width="1.1"></line><line x1="655.4" y1="527.7" x2="645.7" y2="581.7" stroke="#FEFEFE" stroke-opacity="0.3" stroke-width="1.1"></line><line x1="299.8" y1="22.6" x2="289.5" y2="79.4" stroke="#FEFEFE" stroke-opacity="0.3" stroke-width="2.2"></line><line x1="194.4" y1="674.8" x2="184.8" y2="728.3" stroke="#FEFEFE" stroke-opacity="0.2" stroke-width="1.5"></line><line x1="668.2" y1="421.8" x2="659.5" y2="470" stroke="#FEFEFE" stroke-opacity="0.3" stroke-width="1.7"></line><line x1="679.2" y1="675.2" x2="669.9" y2="726.7" stroke="#FEFEFE" stroke-opacity="0.3" stroke-width="1.6"></line><line x1="88.9" y1="366.5" x2="74.9" y2="444.2" stroke="#FEFEFE" stroke-opacity="0.3" stroke-width="1.6"></line><line x1="769.8" y1="1264.1" x2="756" y2="1340.7" stroke="#FEFEFE" stroke-opacity="0.2" stroke-width="1.6"></line><line x1="73.2" y1="288" x2="60.4" y2="359" stroke="#FEFEFE" stroke-opacity="0.2" stroke-width="1.9"></line><line x1="1064" y1="957.6" x2="1052.9" y2="1019.2" stroke="#FEFEFE" stroke-opacity="0.2" stroke-width="1.4"></line><line x1="255.9" y1="1099.1" x2="242.8" y2="1171.9" stroke="#FEFEFE" stroke-opacity="0.3" stroke-width="1.1"></line><line x1="931.5" y1="326" x2="922.5" y2="375.5" stroke="#FEFEFE" stroke-opacity="0.2" stroke-width="2"></line><line x1="662.7" y1="601.5" x2="648.2" y2="682.4" stroke="#FEFEFE" stroke-opacity="0.3" stroke-width="1.5"></line><line x1="815.8" y1="303.7" x2="805.5" y2="361.4" stroke="#FEFEFE" stroke-opacity="0.1" stroke-width="1.1"></line><line x1="168.2" y1="927.7" x2="157.4" y2="987.6" stroke="#FEFEFE" stroke-opacity="0.3" stroke-width="2.1"></line><line x1="785.6" y1="1419.2" x2="776" y2="1472.8" stroke="#FEFEFE" stroke-opacity="0.3" stroke-width="1.6"></line><line x1="899.4" y1="927.8" x2="890" y2="980.1" stroke="#FEFEFE" stroke-opacity="0.3" stroke-width="1.2"></line><line x1="589.1" y1="821.9" x2="575.1" y2="899.8" stroke="#FEFEFE" stroke-opacity="0.3" stroke-width="2.1"></line><line x1="6.8" y1="142.5" x2="-7.4" y2="221.6" stroke="#FEFEFE" stroke-opacity="0.3" stroke-width="2.2"></line><line x1="480.7" y1="966" x2="463.9" y2="1059.6" stroke="#FEFEFE" stroke-opacity="0.2" stroke-width="1.7"></line><line x1="514.6" y1="554.9" x2="499.6" y2="638.1" stroke="#FEFEFE" stroke-opacity="0.3" stroke-width="1.9"></line><line x1="146.2" y1="552.6" x2="130.3" y2="640.6" stroke="#FEFEFE" stroke-opacity="0.1" stroke-width="2"></line><line x1="732.4" y1="1327" x2="718" y2="1407.3" stroke="#FEFEFE" stroke-opacity="0.2" stroke-width="1.8"></line><line x1="198.2" y1="435.3" x2="182.3" y2="523.3" stroke="#FEFEFE" stroke-opacity="0.1" stroke-width="1.9"></line><line x1="860.9" y1="-41.8" x2="851" y2="13.6" stroke="#FEFEFE" stroke-opacity="0.3" stroke-width="1.4"></line><line x1="1135.8" y1="456.1" x2="1124" y2="521.3" stroke="#FEFEFE" stroke-opacity="0.3" stroke-width="2"></line><line x1="910.6" y1="1407.3" x2="896.1" y2="1488" stroke="#FEFEFE" stroke-opacity="0.3" stroke-width="1.7"></line><line x1="941.5" y1="215" x2="926.5" y2="298.5" stroke="#FEFEFE" stroke-opacity="0.2" stroke-width="1.6"></line><line x1="253.5" y1="552.5" x2="237.7" y2="640.7" stroke="#FEFEFE" stroke-opacity="0.3" stroke-width="1.6"></line><line x1="747.6" y1="93.2" x2="731.1" y2="185" stroke="#FEFEFE" stroke-opacity="0.1" stroke-width="1.6"></line><line x1="50.5" y1="1009.7" x2="39.6" y2="1070.3" stroke="#FEFEFE" stroke-opacity="0.3" stroke-width="1.6"></line><line x1="849" y1="1188.9" x2="835.2" y2="1265.9" stroke="#FEFEFE" stroke-opacity="0.3" stroke-width="2.1"></line><line x1="45.3" y1="1015" x2="37.9" y2="1056.2" stroke="#FEFEFE" stroke-opacity="0.3" stroke-width="1.5"></line><line x1="628.9" y1="689.5" x2="619.1" y2="743.9" stroke="#FEFEFE" stroke-opacity="0.2" stroke-width="1.3"></line><line x1="1027.9" y1="1076.4" x2="1010.8" y2="1171.2" stroke="#FEFEFE" stroke-opacity="0.2" stroke-width="1.3"></line><line x1="1041" y1="355.2" x2="1027.3" y2="431.4" stroke="#FEFEFE" stroke-opacity="0.2" stroke-width="1.9"></line><line x1="13.1" y1="394.7" x2="1.9" y2="457.3" stroke="#FEFEFE" stroke-opacity="0.3" stroke-width="1.4"></line><line x1="494.1" y1="513.5" x2="486.4" y2="556.6" stroke="#FEFEFE" stroke-opacity="0.1" stroke-width="1.9"></line><line x1="1125.7" y1="1365.6" x2="1111.7" y2="1443.6" stroke="#FEFEFE" stroke-opacity="0.3" stroke-width="1.1"></line><line x1="13.4" y1="1319.2" x2="2.5" y2="1379.8" stroke="#FEFEFE" stroke-opacity="0.2" stroke-width="1.5"></line><line x1="640.4" y1="567.4" x2="627.2" y2="640.9" stroke="#FEFEFE" stroke-opacity="0.3" stroke-width="1.9"></line><line x1="530.6" y1="-47" x2="520.5" y2="9" stroke="#FEFEFE" stroke-opacity="0.2" stroke-width="1.6"></line><line x1="376.5" y1="1436.9" x2="360.6" y2="1525.3" stroke="#FEFEFE" stroke-opacity="0.3" stroke-width="2"></line><line x1="983.3" y1="685.9" x2="971.8" y2="750" stroke="#FEFEFE" stroke-opacity="0.2" stroke-width="1.1"></line><line x1="762.3" y1="536" x2="746.6" y2="623.5" stroke="#FEFEFE" stroke-opacity="0.2" stroke-width="2.3"></line><line x1="476.2" y1="138.7" x2="467.6" y2="186.1" stroke="#FEFEFE" stroke-opacity="0.2" stroke-width="1.7"></line><line x1="850.7" y1="629.6" x2="837.7" y2="702.1" stroke="#FEFEFE" stroke-opacity="0.1" stroke-width="1.3"></line><line x1="384" y1="1058" x2="369.5" y2="1138.6" stroke="#FEFEFE" stroke-opacity="0.3" stroke-width="1.8"></line><line x1="798.2" y1="1456.8" x2="786.3" y2="1522.8" stroke="#FEFEFE" stroke-opacity="0.1" stroke-width="2.1"></line><line x1="677.2" y1="521.2" x2="661.5" y2="608.6" stroke="#FEFEFE" stroke-opacity="0.2" stroke-width="2"></line><line x1="874.9" y1="1105.7" x2="867.6" y2="1146.3" stroke="#FEFEFE" stroke-opacity="0.3" stroke-width="1.5"></line><line x1="22.6" y1="979.7" x2="7.3" y2="1064.2" stroke="#FEFEFE" stroke-opacity="0.1" stroke-width="2"></line><line x1="1164" y1="145.4" x2="1154.9" y2="195.7" stroke="#FEFEFE" stroke-opacity="0.2" stroke-width="2"></line><line x1="348.5" y1="1346.4" x2="336.9" y2="1410.9" stroke="#FEFEFE" stroke-opacity="0.2" stroke-width="1.9"></line><line x1="699.3" y1="639.3" x2="685.8" y2="714.3" stroke="#FEFEFE" stroke-opacity="0.3" stroke-width="2.1"></line><line x1="730.7" y1="1117.9" x2="721" y2="1171.8" stroke="#FEFEFE" stroke-opacity="0.1" stroke-width="1.5"></line><line x1="381.2" y1="237.9" x2="367.5" y2="314" stroke="#FEFEFE" stroke-opacity="0.1" stroke-width="1.7"></line><line x1="563.8" y1="474.3" x2="550.8" y2="546.7" stroke="#FEFEFE" stroke-opacity="0.1" stroke-width="1.2"></line><line x1="1088.7" y1="165.8" x2="1072.4" y2="256.7" stroke="#FEFEFE" stroke-opacity="0.2" stroke-width="1.2"></line><line x1="433.2" y1="977.1" x2="424.8" y2="1023.6" stroke="#FEFEFE" stroke-opacity="0.3" stroke-width="1.7"></line><line x1="5.9" y1="1130" x2="-7.7" y2="1205.8" stroke="#FEFEFE" stroke-opacity="0.2" stroke-width="1.2"></line><line x1="167.9" y1="937.2" x2="155.9" y2="1004" stroke="#FEFEFE" stroke-opacity="0.3" stroke-width="1.5"></line><line x1="763.9" y1="1219.9" x2="753.1" y2="1279.7" stroke="#FEFEFE" stroke-opacity="0.3" stroke-width="1.4"></line><line x1="328" y1="948.8" x2="312.2" y2="1036.7" stroke="#FEFEFE" stroke-opacity="0.1" stroke-width="1.6"></line><line x1="934.3" y1="190.7" x2="922" y2="259.2" stroke="#FEFEFE" stroke-opacity="0.3" stroke-width="2.3"></line></svg>