<svg xmlns="http://www.w3.org/2000/svg" viewBox="0 0 800 420" width="800" height="420" data-anchor="bottom" xmlns:c2pa="http://c2pa.org/manifest"><defs><filter id="f" x="-20%" y="-20%" width="140%" height="140%"><feTurbulence type="fractalNoise" baseFrequency=".03" numOctaves="3" seed="4"></feTurbulence><feDisplacementMap in="SourceGraphic" scale="20" xChannelSelector="R" yChannelSelector="G"></feDisplacementMap><feGaussianBlur stdDeviation="0.8"></feGaussianBlur></filter></defs><polygon points="60,420 110,250 230,150 360,190 450,320 480,420" fill="#030303"></polygon><polygon points="116,254 236,154 366,194 456,324 480,370 390,240 260,200 140,300" fill="#FEFEFE" fill-opacity="0.28"></polygon><polygon points="60,420 110,340 230,240 360,280 450,410 480,420" fill="#020202" fill-opacity="0.5"></polygon><polygon points="420,420 470,300 560,250 660,290 720,420" fill="#030303"></polygon><polygon points="476,304 566,254 666,294 690,340 590,300 500,350" fill="#FEFEFE" fill-opacity="0.28"></polygon><polygon points="420,420 470,390 560,340 660,380 720,420" fill="#020202" fill-opacity="0.5"></polygon><polygon points="640,420 680,360 760,340 800,380 800,420" fill="#030303"></polygon><polygon points="686,364 766,344 806,384 830,430 790,390 710,410" fill="#FEFEFE" fill-opacity="0.28"></polygon><polygon points="640,420 680,420 760,420 800,420 800,420" fill="#020202" fill-opacity="0.5"></polygon><g filter="url(#f)"><ellipse cx="120" cy="410" rx="120" ry="16" fill="#FEFEFE" fill-opacity="0.85"></ellipse><ellipse cx="400" cy="412" rx="90" ry="12" fill="#FEFEFE" fill-opacity="0.85"></ellipse><ellipse cx="620" cy="414" rx="120" ry="14" fill="#FEFEFE" fill-opacity="0.85"></ellipse><ellipse cx="760" cy="415" rx="60" ry="10" fill="#FEFEFE" fill-opacity="0.85"></ellipse></g></svg>