<svg xmlns="http://www.w3.org/2000/svg" viewBox="0 0 800 900" width="800" height="900" data-anchor="bottom" xmlns:c2pa="http://c2pa.org/manifest"><defs><filter id="f" x="-20%" y="-20%" width="140%" height="140%"><feTurbulence type="fractalNoise" baseFrequency=".035" numOctaves="3" seed="4"></feTurbulence><feDisplacementMap in="SourceGraphic" scale="26" xChannelSelector="R" yChannelSelector="G"></feDisplacementMap><feGaussianBlur stdDeviation="0.6"></feGaussianBlur></filter></defs><path d="M372 900 C380 760 386 600 392 470 L360 380 M392 520 L470 400 M396 470 L300 360 M400 600 L520 470" stroke="#030303" stroke-width="18" fill="none" stroke-linecap="round"></path><polygon points="360,900 440,900 414,470 390,470" fill="#030303"></polygon><rect x="418" y="520" width="6" height="380" fill="#FEFEFE" fill-opacity=".25"></rect><g filter="url(#f)"><ellipse cx="206.5" cy="242.7" rx="65.8" ry="47.4" fill="#030303"></ellipse><ellipse cx="371.5" cy="358.6" rx="98.5" ry="70.9" fill="#030303"></ellipse><ellipse cx="185.7" cy="385.9" rx="70.2" ry="50.6" fill="#030303"></ellipse><ellipse cx="288.6" cy="512.8" rx="74.8" ry="53.8" fill="#030303"></ellipse><ellipse cx="441.5" cy="342.9" rx="60.8" ry="43.8" fill="#030303"></ellipse><ellipse cx="121.4" cy="328.9" rx="81.4" ry="58.6" fill="#030303"></ellipse><ellipse cx="404.6" cy="376.3" rx="71.6" ry="51.5" fill="#030303"></ellipse><ellipse cx="606.1" cy="459.5" rx="60.7" ry="43.7" fill="#030303"></ellipse><ellipse cx="226.4" cy="340" rx="72.6" ry="52.2" fill="#030303"></ellipse><ellipse cx="294.6" cy="358" rx="94.5" ry="68" fill="#030303"></ellipse><ellipse cx="676.9" cy="310.5" rx="79.2" ry="57" fill="#030303"></ellipse><ellipse cx="567.3" cy="311.7" rx="84" ry="60.5" fill="#030303"></ellipse><ellipse cx="382.6" cy="192" rx="81.2" ry="58.5" fill="#030303"></ellipse><ellipse cx="648.9" cy="245.2" rx="80.3" ry="57.8" fill="#030303"></ellipse><ellipse cx="450.1" cy="302.6" rx="94.7" ry="68.2" fill="#030303"></ellipse><ellipse cx="362.8" cy="488.6" rx="106.4" ry="76.6" fill="#030303"></ellipse><ellipse cx="376.1" cy="382.7" rx="82.1" ry="59.1" fill="#030303"></ellipse><ellipse cx="382.3" cy="352.6" rx="95.4" ry="68.7" fill="#030303"></ellipse><ellipse cx="575.8" cy="450.5" rx="77.2" ry="55.6" fill="#030303"></ellipse><ellipse cx="466.9" cy="343.3" rx="75.3" ry="54.2" fill="#030303"></ellipse><ellipse cx="369.8" cy="359.6" rx="103.7" ry="74.7" fill="#030303"></ellipse><ellipse cx="635.5" cy="252.7" rx="98.2" ry="70.7" fill="#030303"></ellipse><ellipse cx="192.8" cy="296.2" rx="70.4" ry="50.7" fill="#030303"></ellipse><ellipse cx="262.7" cy="385.1" rx="78" ry="56.1" fill="#030303"></ellipse><ellipse cx="589.3" cy="427.7" rx="77.8" ry="56" fill="#030303"></ellipse><ellipse cx="315" cy="308.3" rx="77.5" ry="55.8" fill="#030303"></ellipse><ellipse cx="395.2" cy="345.8" rx="105.7" ry="76.1" fill="#030303"></ellipse><ellipse cx="439.9" cy="487.3" rx="83.1" ry="59.8" fill="#030303"></ellipse><ellipse cx="453.9" cy="241" rx="99.1" ry="71.3" fill="#030303"></ellipse><ellipse cx="293" cy="339.5" rx="105.8" ry="76.2" fill="#030303"></ellipse><ellipse cx="539" cy="259.9" rx="75.3" ry="54.2" fill="#030303"></ellipse><ellipse cx="396.6" cy="238.3" rx="97.6" ry="70.3" fill="#030303"></ellipse><ellipse cx="403.6" cy="330.8" rx="99.2" ry="71.4" fill="#030303"></ellipse><ellipse cx="375.7" cy="328.5" rx="103.7" ry="74.7" fill="#030303"></ellipse><ellipse cx="214.5" cy="218.7" rx="47.4" ry="32.9" fill="#020202"></ellipse><ellipse cx="379.5" cy="334.6" rx="70.9" ry="49.2" fill="#020202"></ellipse><ellipse cx="193.7" cy="361.9" rx="50.6" ry="35.1" fill="#020202"></ellipse><ellipse cx="296.6" cy="488.8" rx="53.8" ry="37.4" fill="#020202"></ellipse><ellipse cx="449.5" cy="318.9" rx="43.8" ry="30.4" fill="#020202"></ellipse><ellipse cx="129.4" cy="304.9" rx="58.6" ry="40.7" fill="#020202"></ellipse><ellipse cx="412.6" cy="352.3" rx="51.5" ry="35.8" fill="#020202"></ellipse><ellipse cx="614.1" cy="435.5" rx="43.7" ry="30.3" fill="#020202"></ellipse><ellipse cx="234.4" cy="316" rx="52.2" ry="36.3" fill="#020202"></ellipse><ellipse cx="302.6" cy="334" rx="68" ry="47.2" fill="#020202"></ellipse><ellipse cx="684.9" cy="286.5" rx="57" ry="39.6" fill="#020202"></ellipse><ellipse cx="575.3" cy="287.7" rx="60.5" ry="42" fill="#020202"></ellipse><ellipse cx="390.6" cy="168" rx="58.5" ry="40.6" fill="#020202"></ellipse><ellipse cx="656.9" cy="221.2" rx="57.8" ry="40.2" fill="#020202"></ellipse><ellipse cx="458.1" cy="278.6" rx="68.2" ry="47.4" fill="#020202"></ellipse><ellipse cx="370.8" cy="464.6" rx="76.6" ry="53.2" fill="#020202"></ellipse><ellipse cx="384.1" cy="358.7" rx="59.1" ry="41" fill="#020202"></ellipse><ellipse cx="390.3" cy="328.6" rx="68.7" ry="47.7" fill="#020202"></ellipse><ellipse cx="583.8" cy="426.5" rx="55.6" ry="38.6" fill="#020202"></ellipse><ellipse cx="474.9" cy="319.3" rx="54.2" ry="37.6" fill="#020202"></ellipse><ellipse cx="377.8" cy="335.6" rx="74.7" ry="51.9" fill="#020202"></ellipse><ellipse cx="643.5" cy="228.7" rx="70.7" ry="49.1" fill="#020202"></ellipse><ellipse cx="200.8" cy="272.2" rx="50.7" ry="35.2" fill="#020202"></ellipse><ellipse cx="270.7" cy="361.1" rx="56.1" ry="39" fill="#020202"></ellipse><ellipse cx="597.3" cy="403.7" rx="56" ry="38.9" fill="#020202"></ellipse><ellipse cx="323" cy="284.3" rx="55.8" ry="38.7" fill="#020202"></ellipse><ellipse cx="403.2" cy="321.8" rx="76.1" ry="52.9" fill="#020202"></ellipse><ellipse cx="447.9" cy="463.3" rx="59.8" ry="41.5" fill="#020202"></ellipse><ellipse cx="461.9" cy="217" rx="71.3" ry="49.5" fill="#020202"></ellipse><ellipse cx="301" cy="315.5" rx="76.2" ry="52.9" fill="#020202"></ellipse><ellipse cx="547" cy="235.9" rx="54.2" ry="37.6" fill="#020202"></ellipse><ellipse cx="404.6" cy="214.3" rx="70.3" ry="48.8" fill="#020202"></ellipse><ellipse cx="411.6" cy="306.8" rx="71.4" ry="49.6" fill="#020202"></ellipse><ellipse cx="383.7" cy="304.5" rx="74.7" ry="51.8" fill="#020202"></ellipse><ellipse cx="393.5" cy="312.6" rx="39.4" ry="23.6" fill="#FEFEFE" fill-opacity="0.3"></ellipse><ellipse cx="463.5" cy="296.9" rx="24.3" ry="14.6" fill="#FEFEFE" fill-opacity="0.3"></ellipse><ellipse cx="426.6" cy="330.3" rx="28.6" ry="17.2" fill="#FEFEFE" fill-opacity="0.3"></ellipse><ellipse cx="698.9" cy="264.5" rx="31.7" ry="19" fill="#FEFEFE" fill-opacity="0.3"></ellipse><ellipse cx="589.3" cy="265.7" rx="33.6" ry="20.2" fill="#FEFEFE" fill-opacity="0.3"></ellipse><ellipse cx="404.6" cy="146" rx="32.5" ry="19.5" fill="#FEFEFE" fill-opacity="0.3"></ellipse><ellipse cx="670.9" cy="199.2" rx="32.1" ry="19.3" fill="#FEFEFE" fill-opacity="0.3"></ellipse><ellipse cx="472.1" cy="256.6" rx="37.9" ry="22.7" fill="#FEFEFE" fill-opacity="0.3"></ellipse><ellipse cx="398.1" cy="336.7" rx="32.8" ry="19.7" fill="#FEFEFE" fill-opacity="0.3"></ellipse><ellipse cx="404.3" cy="306.6" rx="38.2" ry="22.9" fill="#FEFEFE" fill-opacity="0.3"></ellipse><ellipse cx="488.9" cy="297.3" rx="30.1" ry="18.1" fill="#FEFEFE" fill-opacity="0.3"></ellipse><ellipse cx="391.8" cy="313.6" rx="41.5" ry="24.9" fill="#FEFEFE" fill-opacity="0.3"></ellipse><ellipse cx="657.5" cy="206.7" rx="39.3" ry="23.6" fill="#FEFEFE" fill-opacity="0.3"></ellipse><ellipse cx="417.2" cy="299.8" rx="42.3" ry="25.4" fill="#FEFEFE" fill-opacity="0.3"></ellipse><ellipse cx="475.9" cy="195" rx="39.6" ry="23.8" fill="#FEFEFE" fill-opacity="0.3"></ellipse><ellipse cx="561" cy="213.9" rx="30.1" ry="18.1" fill="#FEFEFE" fill-opacity="0.3"></ellipse><ellipse cx="418.6" cy="192.3" rx="39.1" ry="23.4" fill="#FEFEFE" fill-opacity="0.3"></ellipse><ellipse cx="425.6" cy="284.8" rx="39.7" ry="23.8" fill="#FEFEFE" fill-opacity="0.3"></ellipse><ellipse cx="397.7" cy="282.5" rx="41.5" ry="24.9" fill="#FEFEFE" fill-opacity="0.3"></ellipse><ellipse cx="412.6" cy="136" rx="13" ry="6.5" fill="#FEFEFE" fill-opacity="0.5"></ellipse><ellipse cx="678.9" cy="189.2" rx="12.8" ry="6.4" fill="#FEFEFE" fill-opacity="0.5"></ellipse><ellipse cx="480.1" cy="246.6" rx="15.2" ry="7.6" fill="#FEFEFE" fill-opacity="0.5"></ellipse><ellipse cx="665.5" cy="196.7" rx="15.7" ry="7.9" fill="#FEFEFE" fill-opacity="0.5"></ellipse><ellipse cx="483.9" cy="185" rx="15.9" ry="7.9" fill="#FEFEFE" fill-opacity="0.5"></ellipse><ellipse cx="569" cy="203.9" rx="12" ry="6" fill="#FEFEFE" fill-opacity="0.5"></ellipse><ellipse cx="426.6" cy="182.3" rx="15.6" ry="7.8" fill="#FEFEFE" fill-opacity="0.5"></ellipse><ellipse cx="400" cy="890" rx="260" ry="24" fill="#030303"></ellipse></g></svg>